<?xml version="1.0" encoding="UTF-8" standalone="no"?><!DOCTYPE svg PUBLIC "-//W3C//DTD SVG 1.1//EN" "http://www.w3.org/Graphics/SVG/1.1/DTD/svg11.dtd"><svg width="100%" height="100%" viewBox="0 0 3805 479" version="1.1" xmlns="http://www.w3.org/2000/svg" xmlns:xlink="http://www.w3.org/1999/xlink" xml:space="preserve" xmlns:serif="http://www.serif.com/" style="fill-rule:evenodd;clip-rule:evenodd;stroke-linecap:round;stroke-linejoin:round;stroke-miterlimit:1.5;"><g><circle cx="239.266" cy="239.266" r="205.932" style="fill:#fff;stroke:#ccc;stroke-width:66.67px;"/><path d="M198.238,241.489l43.251,43.251l-109.466,109.466c-0,0 54.064,33.469 40.162,40.162c-13.902,6.694 -102.98,20.596 -123.576,0c-20.595,-20.596 -6.693,-109.673 0,-123.575c6.694,-13.902 6.866,-34.326 40.162,40.162l109.467,-109.466Z" style="fill:#2fa6cc;"/><clipPath id="_clip1"><path d="M198.238,241.489l43.251,43.251l-109.466,109.466c-0,0 54.064,33.469 40.162,40.162c-13.902,6.694 -102.98,20.596 -123.576,0c-20.595,-20.596 -6.693,-109.673 0,-123.575c6.694,-13.902 6.866,-34.326 40.162,40.162l109.467,-109.466Z"/></clipPath><g clip-path="url(#_clip1)"><path d="M132.023,394.206l66.215,-152.717l43.251,43.251l-109.466,109.466" style="fill:#00cfff;"/></g><path d="M241.489,198.238l109.466,-109.467c0,0 -54.064,-33.468 -40.162,-40.162c13.902,-6.693 102.979,-20.595 123.575,0c20.596,20.596 6.694,109.674 0,123.576c-6.693,13.902 -6.865,34.326 -40.162,-40.162l-109.466,109.466l-43.251,-43.251Z" style="fill:#00cfff;"/><clipPath id="_clip2"><path d="M241.489,198.238l109.466,-109.467c0,0 -54.064,-33.468 -40.162,-40.162c13.902,-6.693 102.979,-20.595 123.575,0c20.596,20.596 6.694,109.674 0,123.576c-6.693,13.902 -6.865,34.326 -40.162,-40.162l-109.466,109.466l-43.251,-43.251Z"/></clipPath><g clip-path="url(#_clip2)"><path d="M284.74,241.489l66.215,-152.718l-109.466,109.467l43.251,43.251" style="fill:#2fa6cc;"/></g><path d="M284.74,241.489l109.466,109.466c0,0 33.469,-54.064 40.162,-40.162c6.694,13.902 20.596,102.979 0,123.575c-20.596,20.596 -109.673,6.694 -123.575,0c-13.902,-6.693 -34.326,-6.865 40.162,-40.162l-109.466,-109.466l43.251,-43.251Z" style="fill:#fdc501;"/><clipPath id="_clip3"><path d="M284.74,241.489l109.466,109.466c0,0 33.469,-54.064 40.162,-40.162c6.694,13.902 20.596,102.979 0,123.575c-20.596,20.596 -109.673,6.694 -123.575,0c-13.902,-6.693 -34.326,-6.865 40.162,-40.162l-109.466,-109.466l43.251,-43.251Z"/></clipPath><g clip-path="url(#_clip3)"><path d="M350.955,394.206l-109.466,-109.466l43.251,-43.251l66.215,152.717" style="fill:#d2a40a;"/></g><path d="M198.238,241.489l-109.467,-109.466c0,-0 -33.468,54.064 -40.162,40.162c-6.693,-13.902 -20.595,-102.98 0,-123.576c20.596,-20.595 109.674,-6.693 123.576,0c13.902,6.694 34.326,6.866 -40.162,40.162l109.466,109.467l-43.251,43.251Z" style="fill:#d2a40a;"/><clipPath id="_clip4"><path d="M198.238,241.489l-109.467,-109.466c0,-0 -33.468,54.064 -40.162,40.162c-6.693,-13.902 -20.595,-102.98 0,-123.576c20.596,-20.595 109.674,-6.693 123.576,0c13.902,6.694 34.326,6.866 -40.162,40.162l109.466,109.467l-43.251,43.251Z"/></clipPath><g clip-path="url(#_clip4)"><path d="M198.238,241.489l43.251,-43.251l-109.466,-109.467l66.215,152.718" style="fill:#fdc501;"/></g><path d="M284.74,241.489l-43.251,43.251l-43.251,-43.251l43.251,-43.251l43.251,43.251Z" style="fill:#fff200;"/><circle cx="241.489" cy="241.489" r="43.663" style="fill:#fff200;"/><circle cx="241.489" cy="241.489" r="34.577" style="fill:#fff200;"/></g><g><g><g id="text"><path d="M696.662,315.366c-7.333,2.803 -14.854,4.879 -22.563,6.227c-7.71,1.348 -15.663,2.022 -23.858,2.022c-25.663,-0 -45.422,-6.955 -59.278,-20.865c-13.856,-13.91 -20.784,-34.236 -20.784,-60.977c-0,-12.832 1.994,-24.477 5.984,-34.937c3.99,-10.459 9.597,-19.409 16.821,-26.849c7.225,-7.44 15.851,-13.182 25.879,-17.226c10.028,-4.043 21.081,-6.065 33.158,-6.065c8.41,-0 16.282,0.593 23.614,1.779c7.333,1.186 14.341,3.127 21.027,5.823l-0,26.849c-7.009,-3.666 -14.153,-6.335 -21.431,-8.006c-7.279,-1.672 -14.8,-2.507 -22.563,-2.507c-7.225,-0 -14.045,1.375 -20.461,4.124c-6.416,2.75 -12.05,6.713 -16.902,11.888c-4.852,5.176 -8.68,11.484 -11.484,18.924c-2.803,7.441 -4.205,15.851 -4.205,25.232c-0,19.625 4.771,34.317 14.314,44.075c9.543,9.759 22.779,14.638 39.708,14.638c7.656,0 15.069,-0.863 22.24,-2.588c7.17,-1.725 14.098,-4.313 20.784,-7.764l-0,26.203Z" style="fill:#3d3d3d;fill-rule:nonzero;"/><path d="M759.256,158.96l25.718,0l0.808,29.923c9.597,-11.538 19.059,-19.895 28.386,-25.07c9.327,-5.176 18.735,-7.764 28.224,-7.764c16.822,-0 29.572,5.445 38.253,16.336c8.68,10.891 12.696,27.065 12.049,48.523l-28.466,-0c0.323,-14.234 -1.753,-24.558 -6.227,-30.974c-4.475,-6.416 -11.026,-9.624 -19.652,-9.624c-3.774,0 -7.575,0.674 -11.403,2.022c-3.828,1.348 -7.764,3.505 -11.807,6.47c-4.044,2.965 -8.33,6.766 -12.859,11.403c-4.529,4.636 -9.381,10.243 -14.557,16.821l0,104.324l-28.467,0l0,-162.39Z" style="fill:#3d3d3d;fill-rule:nonzero;"/><path d="M1076.11,238.861c0,12.616 -1.779,24.181 -5.337,34.694c-3.559,10.514 -8.681,19.517 -15.366,27.011c-6.685,7.494 -14.826,13.317 -24.423,17.469c-9.597,4.151 -20.488,6.227 -32.672,6.227c-11.646,-0 -22.078,-1.806 -31.298,-5.419c-9.219,-3.612 -17.036,-8.922 -23.452,-15.931c-6.416,-7.009 -11.322,-15.689 -14.719,-26.041c-3.397,-10.352 -5.095,-22.267 -5.095,-35.745c0,-12.616 1.779,-24.127 5.338,-34.532c3.558,-10.406 8.68,-19.356 15.365,-26.85c6.686,-7.494 14.827,-13.317 24.424,-17.468c9.596,-4.151 20.487,-6.227 32.672,-6.227c11.645,-0 22.078,1.806 31.297,5.418c9.219,3.613 17.037,8.896 23.453,15.851c6.415,6.955 11.322,15.608 14.718,25.96c3.397,10.351 5.095,22.213 5.095,35.583Zm-28.79,1.294c-0,-10.028 -1.105,-18.789 -3.316,-26.283c-2.21,-7.494 -5.364,-13.748 -9.462,-18.762c-4.097,-5.014 -9.084,-8.788 -14.961,-11.322c-5.877,-2.534 -12.427,-3.801 -19.652,-3.801c-8.41,-0 -15.608,1.644 -21.593,4.933c-5.984,3.289 -10.89,7.683 -14.718,13.182c-3.828,5.499 -6.632,11.888 -8.411,19.167c-1.779,7.278 -2.669,14.907 -2.669,22.886c0,10.028 1.106,18.816 3.316,26.364c2.211,7.548 5.365,13.829 9.462,18.844c4.098,5.014 9.058,8.788 14.881,11.322c5.822,2.534 12.4,3.8 19.732,3.8c8.411,0 15.608,-1.644 21.593,-4.933c5.984,-3.288 10.891,-7.682 14.719,-13.182c3.827,-5.499 6.631,-11.888 8.41,-19.166c1.779,-7.279 2.669,-14.962 2.669,-23.049Z" style="fill:#3d3d3d;fill-rule:nonzero;"/><path d="M1245.46,277.033c0,5.715 -0.97,10.837 -2.911,15.365c-1.941,4.529 -4.583,8.546 -7.925,12.05c-3.343,3.505 -7.225,6.497 -11.646,8.977c-4.421,2.48 -9.138,4.529 -14.153,6.146c-5.014,1.618 -10.162,2.804 -15.446,3.559c-5.284,0.754 -10.459,1.132 -15.527,1.132c-10.999,-0 -21.108,-0.485 -30.327,-1.456c-9.22,-0.97 -18.25,-2.534 -27.092,-4.69l-0,-25.879c9.489,2.695 18.924,4.744 28.305,6.146c9.381,1.402 18.708,2.102 27.981,2.102c13.479,0 23.453,-1.833 29.923,-5.499c6.47,-3.666 9.705,-8.896 9.705,-15.689c-0,-2.911 -0.513,-5.526 -1.537,-7.844c-1.024,-2.319 -2.884,-4.529 -5.58,-6.632c-2.696,-2.103 -6.874,-4.286 -12.535,-6.55c-5.661,-2.265 -13.398,-4.853 -23.21,-7.764c-7.333,-2.157 -14.099,-4.61 -20.299,-7.359c-6.2,-2.75 -11.565,-6.012 -16.094,-9.786c-4.528,-3.774 -8.087,-8.195 -10.675,-13.263c-2.588,-5.068 -3.881,-11.052 -3.881,-17.953c-0,-4.529 1.051,-9.489 3.154,-14.881c2.102,-5.391 5.687,-10.405 10.755,-15.042c5.068,-4.636 11.916,-8.491 20.542,-11.564c8.626,-3.074 19.409,-4.61 32.348,-4.61c6.362,-0 13.425,0.35 21.189,1.051c7.763,0.701 15.851,1.914 24.261,3.639l0,25.071c-8.842,-2.157 -17.225,-3.747 -25.151,-4.772c-7.925,-1.024 -14.799,-1.536 -20.622,-1.536c-7.009,-0 -12.913,0.539 -17.711,1.617c-4.798,1.078 -8.68,2.561 -11.645,4.448c-2.966,1.887 -5.095,4.097 -6.389,6.631c-1.294,2.534 -1.941,5.257 -1.941,8.168c-0,2.912 0.566,5.554 1.698,7.926c1.132,2.372 3.235,4.663 6.308,6.874c3.073,2.21 7.359,4.421 12.859,6.631c5.499,2.211 12.67,4.61 21.512,7.198c9.596,2.804 17.683,5.742 24.261,8.815c6.578,3.073 11.915,6.497 16.013,10.271c4.097,3.774 7.035,8.033 8.815,12.777c1.779,4.745 2.668,10.136 2.668,16.175Z" style="fill:#3d3d3d;fill-rule:nonzero;"/><path d="M1427.58,277.033c0,5.715 -0.97,10.837 -2.911,15.365c-1.941,4.529 -4.583,8.546 -7.926,12.05c-3.342,3.505 -7.224,6.497 -11.645,8.977c-4.421,2.48 -9.139,4.529 -14.153,6.146c-5.014,1.618 -10.163,2.804 -15.446,3.559c-5.284,0.754 -10.46,1.132 -15.528,1.132c-10.998,-0 -21.107,-0.485 -30.326,-1.456c-9.22,-0.97 -18.25,-2.534 -27.092,-4.69l-0,-25.879c9.489,2.695 18.924,4.744 28.305,6.146c9.381,1.402 18.708,2.102 27.981,2.102c13.479,0 23.453,-1.833 29.923,-5.499c6.469,-3.666 9.704,-8.896 9.704,-15.689c0,-2.911 -0.512,-5.526 -1.536,-7.844c-1.025,-2.319 -2.885,-4.529 -5.58,-6.632c-2.696,-2.103 -6.874,-4.286 -12.535,-6.55c-5.661,-2.265 -13.398,-4.853 -23.211,-7.764c-7.332,-2.157 -14.098,-4.61 -20.298,-7.359c-6.201,-2.75 -11.565,-6.012 -16.094,-9.786c-4.529,-3.774 -8.087,-8.195 -10.675,-13.263c-2.588,-5.068 -3.882,-11.052 -3.882,-17.953c0,-4.529 1.052,-9.489 3.154,-14.881c2.103,-5.391 5.688,-10.405 10.756,-15.042c5.068,-4.636 11.915,-8.491 20.542,-11.564c8.626,-3.074 19.409,-4.61 32.348,-4.61c6.362,-0 13.425,0.35 21.189,1.051c7.763,0.701 15.85,1.914 24.261,3.639l0,25.071c-8.842,-2.157 -17.226,-3.747 -25.151,-4.772c-7.925,-1.024 -14.799,-1.536 -20.622,-1.536c-7.009,-0 -12.913,0.539 -17.711,1.617c-4.799,1.078 -8.68,2.561 -11.646,4.448c-2.965,1.887 -5.095,4.097 -6.388,6.631c-1.294,2.534 -1.941,5.257 -1.941,8.168c-0,2.912 0.566,5.554 1.698,7.926c1.132,2.372 3.235,4.663 6.308,6.874c3.073,2.21 7.359,4.421 12.858,6.631c5.5,2.211 12.67,4.61 21.512,7.198c9.597,2.804 17.684,5.742 24.262,8.815c6.577,3.073 11.915,6.497 16.012,10.271c4.098,3.774 7.036,8.033 8.815,12.777c1.78,4.745 2.669,10.136 2.669,16.175Z" style="fill:#3d3d3d;fill-rule:nonzero;"/><path d="M1619.89,237.244c-0,14.449 -2.022,27.065 -6.066,37.848c-4.043,10.783 -9.623,19.732 -16.74,26.849c-7.117,7.117 -15.527,12.454 -25.232,16.013c-9.705,3.558 -20.218,5.337 -31.54,5.337c-5.176,0 -10.325,-0.269 -15.446,-0.808c-5.122,-0.54 -10.325,-1.456 -15.609,-2.75l0,67.932l-28.143,0l0,-228.705l25.07,0l1.779,27.173c8.088,-11.106 16.714,-18.897 25.879,-23.372c9.166,-4.475 19.086,-6.712 29.761,-6.712c9.273,-0 17.414,1.941 24.423,5.823c7.009,3.881 12.886,9.354 17.63,16.417c4.745,7.062 8.303,15.581 10.675,25.555c2.373,9.974 3.559,21.107 3.559,33.4Zm-28.791,1.294c0,-8.519 -0.62,-16.336 -1.86,-23.453c-1.24,-7.117 -3.207,-13.209 -5.903,-18.277c-2.696,-5.068 -6.146,-9.031 -10.352,-11.888c-4.205,-2.857 -9.219,-4.286 -15.042,-4.286c-3.558,-0 -7.171,0.566 -10.837,1.698c-3.666,1.132 -7.467,3.019 -11.403,5.661c-3.935,2.642 -8.087,6.146 -12.454,10.513c-4.367,4.367 -9.03,9.786 -13.991,16.256l0,78.769c5.176,2.156 10.622,3.854 16.336,5.094c5.715,1.24 11.322,1.86 16.822,1.86c15.204,0 27.119,-5.148 35.745,-15.446c8.626,-10.298 12.939,-25.798 12.939,-46.501Z" style="fill:#3d3d3d;fill-rule:nonzero;"/><path d="M1718.56,115.937l-48.038,-0l0,-23.13l76.505,0l-0,205.091l48.361,-0l0,23.452l-130.203,0l-0,-23.452l53.375,-0l0,-181.961Z" style="fill:#3d3d3d;fill-rule:nonzero;"/><path d="M1949.69,321.35l-0.647,-21.835c-8.842,8.734 -17.819,15.042 -26.93,18.924c-9.112,3.882 -18.681,5.823 -28.71,5.823c-9.273,-0 -17.198,-1.186 -23.776,-3.559c-6.577,-2.372 -11.996,-5.634 -16.255,-9.785c-4.259,-4.151 -7.386,-9.031 -9.381,-14.638c-1.995,-5.607 -2.992,-11.699 -2.992,-18.277c-0,-16.282 6.065,-29.033 18.196,-38.252c12.13,-9.219 30.057,-13.829 53.779,-13.829l33.643,-0l-0,-14.234c-0,-9.596 -3.073,-17.279 -9.219,-23.048c-6.147,-5.769 -15.528,-8.653 -28.144,-8.653c-9.165,-0 -18.196,1.024 -27.092,3.073c-8.896,2.049 -18.088,4.96 -27.577,8.734l0,-25.394c3.558,-1.294 7.521,-2.561 11.888,-3.801c4.367,-1.24 8.977,-2.345 13.829,-3.315c4.853,-0.971 9.92,-1.753 15.204,-2.346c5.284,-0.593 10.621,-0.889 16.013,-0.889c9.812,-0 18.654,1.078 26.526,3.235c7.871,2.156 14.529,5.445 19.975,9.866c5.445,4.421 9.624,9.974 12.535,16.66c2.911,6.685 4.367,14.556 4.367,23.614l-0,111.926l-25.232,0Zm-3.073,-73.916l-35.745,-0c-7.009,-0 -13.048,0.701 -18.116,2.102c-5.067,1.402 -9.219,3.397 -12.454,5.985c-3.235,2.588 -5.634,5.688 -7.197,9.3c-1.564,3.612 -2.346,7.683 -2.346,12.212c0,3.127 0.486,6.119 1.456,8.976c0.971,2.858 2.534,5.392 4.691,7.602c2.156,2.211 4.96,3.963 8.41,5.257c3.451,1.294 7.656,1.941 12.616,1.941c6.47,-0 13.883,-1.968 22.24,-5.904c8.357,-3.935 17.172,-10.163 26.445,-18.681l-0,-28.79Z" style="fill:#3d3d3d;fill-rule:nonzero;"/><path d="M2158.34,319.086c-6.362,1.617 -12.94,2.777 -19.733,3.477c-6.793,0.701 -13.694,1.052 -20.703,1.052c-20.38,-0 -35.584,-4.61 -45.612,-13.829c-10.028,-9.22 -15.042,-23.372 -15.042,-42.458l0,-84.753l-45.45,-0l0,-23.615l45.45,0l0,-44.641l28.144,-7.278l-0,51.919l72.946,0l-0,23.615l-72.946,-0l-0,82.489c-0,11.645 3.1,20.352 9.3,26.121c6.2,5.769 15.338,8.654 27.415,8.654c5.176,-0 10.837,-0.405 16.983,-1.214c6.147,-0.808 12.562,-2.075 19.248,-3.801l-0,24.262Z" style="fill:#3d3d3d;fill-rule:nonzero;"/><path d="M2353.72,119.01c-14.772,-3.127 -27.496,-4.691 -38.171,-4.691c-25.34,0 -38.01,13.263 -38.01,39.789l0,28.467l71.167,-0l0,23.452l-71.167,0l0,115.323l-28.628,0l-0,-115.323l-52.243,0l-0,-23.452l52.243,-0l-0,-26.85c-0,-43.239 22.536,-64.859 67.609,-64.859c11.214,0 23.614,1.294 37.2,3.882l0,24.262Z" style="fill:#3d3d3d;fill-rule:nonzero;"/><path d="M2533.09,238.861c-0,12.616 -1.78,24.181 -5.338,34.694c-3.558,10.514 -8.68,19.517 -15.365,27.011c-6.686,7.494 -14.827,13.317 -24.424,17.469c-9.596,4.151 -20.487,6.227 -32.672,6.227c-11.645,-0 -22.078,-1.806 -31.297,-5.419c-9.219,-3.612 -17.037,-8.922 -23.453,-15.931c-6.416,-7.009 -11.322,-15.689 -14.719,-26.041c-3.396,-10.352 -5.094,-22.267 -5.094,-35.745c-0,-12.616 1.779,-24.127 5.337,-34.532c3.558,-10.406 8.68,-19.356 15.366,-26.85c6.685,-7.494 14.826,-13.317 24.423,-17.468c9.597,-4.151 20.487,-6.227 32.672,-6.227c11.646,-0 22.078,1.806 31.297,5.418c9.22,3.613 17.037,8.896 23.453,15.851c6.416,6.955 11.322,15.608 14.719,25.96c3.396,10.351 5.095,22.213 5.095,35.583Zm-28.791,1.294c0,-10.028 -1.105,-18.789 -3.315,-26.283c-2.211,-7.494 -5.365,-13.748 -9.462,-18.762c-4.098,-5.014 -9.085,-8.788 -14.962,-11.322c-5.876,-2.534 -12.427,-3.801 -19.651,-3.801c-8.411,-0 -15.609,1.644 -21.593,4.933c-5.985,3.289 -10.891,7.683 -14.719,13.182c-3.828,5.499 -6.631,11.888 -8.41,19.167c-1.78,7.278 -2.669,14.907 -2.669,22.886c-0,10.028 1.105,18.816 3.316,26.364c2.21,7.548 5.364,13.829 9.462,18.844c4.097,5.014 9.057,8.788 14.88,11.322c5.823,2.534 12.4,3.8 19.733,3.8c8.41,0 15.608,-1.644 21.592,-4.933c5.985,-3.288 10.891,-7.682 14.719,-13.182c3.828,-5.499 6.631,-11.888 8.411,-19.166c1.779,-7.279 2.668,-14.962 2.668,-23.049Z" style="fill:#3d3d3d;fill-rule:nonzero;"/><path d="M2580.48,158.96l25.718,0l0.808,29.923c9.597,-11.538 19.059,-19.895 28.386,-25.07c9.327,-5.176 18.735,-7.764 28.224,-7.764c16.822,-0 29.572,5.445 38.253,16.336c8.68,10.891 12.696,27.065 12.05,48.523l-28.467,-0c0.323,-14.234 -1.753,-24.558 -6.227,-30.974c-4.475,-6.416 -11.026,-9.624 -19.652,-9.624c-3.774,0 -7.575,0.674 -11.403,2.022c-3.828,1.348 -7.764,3.505 -11.807,6.47c-4.044,2.965 -8.33,6.766 -12.859,11.403c-4.529,4.636 -9.381,10.243 -14.557,16.821l0,104.324l-28.467,0l0,-162.39Z" style="fill:#3d3d3d;fill-rule:nonzero;"/><path d="M2871.78,321.35l-0,-116.616c-0,-5.068 -0.189,-9.22 -0.566,-12.455c-0.378,-3.235 -0.971,-5.795 -1.779,-7.682c-0.809,-1.887 -1.834,-3.208 -3.074,-3.963c-1.24,-0.755 -2.776,-1.132 -4.609,-1.132c-2.157,-0 -4.152,0.647 -5.985,1.941c-1.833,1.293 -3.801,3.396 -5.903,6.308c-2.103,2.911 -4.421,6.766 -6.955,11.564c-2.534,4.799 -5.527,10.702 -8.977,17.711l-0,104.324l-25.717,0l-0,-113.543c-0,-5.931 -0.189,-10.729 -0.566,-14.395c-0.378,-3.667 -0.971,-6.524 -1.78,-8.573c-0.808,-2.049 -1.86,-3.45 -3.154,-4.205c-1.293,-0.755 -2.857,-1.132 -4.69,-1.132c-1.941,-0 -3.774,0.539 -5.499,1.617c-1.726,1.078 -3.64,3.019 -5.742,5.823c-2.103,2.803 -4.448,6.631 -7.036,11.484c-2.588,4.852 -5.661,11.052 -9.219,18.6l-0,104.324l-25.879,0l-0,-162.39l21.512,0l1.293,30.893c2.804,-6.146 5.527,-11.376 8.169,-15.689c2.641,-4.313 5.364,-7.791 8.168,-10.432c2.803,-2.642 5.795,-4.583 8.976,-5.823c3.181,-1.24 6.713,-1.86 10.594,-1.86c8.735,-0 15.366,2.857 19.895,8.572c4.529,5.715 6.793,14.557 6.793,26.526c2.588,-5.607 5.122,-10.594 7.602,-14.961c2.48,-4.367 5.149,-8.033 8.006,-10.999c2.858,-2.965 6.012,-5.229 9.462,-6.793c3.451,-1.563 7.44,-2.345 11.969,-2.345c20.38,-0 30.57,15.689 30.57,47.067l-0,118.234l-25.879,0Z" style="fill:#3d3d3d;fill-rule:nonzero;"/><path d="M3111.97,243.552c0,-13.802 1.887,-26.068 5.661,-36.797c3.774,-10.729 9.139,-19.786 16.094,-27.173c6.955,-7.386 15.312,-12.993 25.07,-16.821c9.759,-3.828 20.622,-5.742 32.591,-5.742c5.176,0 10.271,0.324 15.285,0.971c5.014,0.647 9.947,1.671 14.8,3.073l-0,-68.256l28.305,0l-0,228.543l-25.232,0l-0.971,-30.731c-7.871,11.43 -16.39,19.895 -25.555,25.394c-9.166,5.499 -19.086,8.249 -29.761,8.249c-9.273,-0 -17.441,-1.941 -24.504,-5.823c-7.063,-3.882 -12.939,-9.354 -17.63,-16.417c-4.691,-7.063 -8.222,-15.554 -10.594,-25.474c-2.372,-9.921 -3.559,-20.919 -3.559,-32.996Zm28.791,-1.779c-0,19.625 2.884,34.262 8.653,43.913c5.769,9.651 13.937,14.476 24.504,14.476c7.117,0 14.638,-3.181 22.563,-9.543c7.926,-6.362 16.255,-15.797 24.99,-28.305l-0,-75.372c-4.637,-2.157 -9.759,-3.801 -15.366,-4.933c-5.607,-1.133 -11.16,-1.699 -16.66,-1.699c-15.311,0 -27.253,4.96 -35.826,14.881c-8.572,9.92 -12.858,25.447 -12.858,46.582Z" style="fill:#3d3d3d;fill-rule:nonzero;"/><path d="M3439.5,231.583c0,3.99 -0.054,7.332 -0.161,10.028c-0.108,2.696 -0.27,5.23 -0.486,7.602l-114.029,-0c0,16.606 4.637,29.356 13.91,38.252c9.274,8.896 22.644,13.344 40.113,13.344c4.744,-0 9.489,-0.189 14.233,-0.566c4.745,-0.378 9.327,-0.89 13.748,-1.537c4.421,-0.647 8.653,-1.374 12.697,-2.183c4.044,-0.809 7.791,-1.699 11.241,-2.669l0,23.129c-7.656,2.157 -16.309,3.909 -25.96,5.257c-9.65,1.348 -19.651,2.022 -30.003,2.022c-13.91,-0 -25.879,-1.887 -35.907,-5.661c-10.028,-3.774 -18.25,-9.247 -24.666,-16.417c-6.416,-7.171 -11.16,-15.959 -14.233,-26.364c-3.073,-10.406 -4.61,-22.186 -4.61,-35.341c0,-11.43 1.645,-22.24 4.933,-32.43c3.289,-10.19 8.088,-19.139 14.395,-26.849c6.308,-7.71 14.045,-13.829 23.211,-18.358c9.165,-4.529 19.571,-6.793 31.216,-6.793c11.322,-0 21.35,1.779 30.084,5.337c8.734,3.559 16.094,8.6 22.078,15.123c5.985,6.524 10.514,14.449 13.587,23.777c3.073,9.327 4.609,19.759 4.609,31.297Zm-29.275,-4.044c0.323,-7.224 -0.378,-13.829 -2.103,-19.813c-1.725,-5.985 -4.394,-11.134 -8.006,-15.447c-3.612,-4.313 -8.114,-7.682 -13.506,-10.109c-5.391,-2.426 -11.645,-3.639 -18.762,-3.639c-6.146,0 -11.753,1.186 -16.821,3.559c-5.068,2.372 -9.435,5.714 -13.101,10.028c-3.667,4.313 -6.632,9.489 -8.896,15.527c-2.265,6.038 -3.666,12.67 -4.206,19.894l85.401,0Z" style="fill:#3d3d3d;fill-rule:nonzero;"/><path d="M3469.26,158.96l32.025,0l39.789,107.398l8.572,26.202l8.896,-26.849l39.466,-106.751l30.893,0l-63.727,162.39l-32.349,0l-63.565,-162.39Z" style="fill:#3d3d3d;fill-rule:nonzero;"/></g><circle cx="3003.8" cy="239.266" r="66.547" style="fill:#ffc600;"/><clipPath id="_clip5"><circle cx="3003.8" cy="239.266" r="66.547"/></clipPath><g clip-path="url(#_clip5)"><circle cx="3070.34" cy="239.266" r="66.547" style="fill:#d2a50a;"/></g></g><path d="M3804.8,193.552c0,-5.526 -2.195,-10.825 -6.102,-14.732c-3.907,-3.907 -9.206,-6.102 -14.731,-6.102l-91.428,0c-5.525,0 -10.824,2.195 -14.731,6.102c-3.907,3.907 -6.102,9.206 -6.102,14.732l-0,91.428c-0,5.525 2.195,10.824 6.102,14.731c3.907,3.907 9.206,6.102 14.731,6.102l91.428,-0c5.525,-0 10.824,-2.195 14.731,-6.102c3.907,-3.907 6.102,-9.206 6.102,-14.731l0,-91.428Z" style="fill:#00cfff;"/><clipPath id="_clip6"><path d="M3804.8,193.552c0,-5.526 -2.195,-10.825 -6.102,-14.732c-3.907,-3.907 -9.206,-6.102 -14.731,-6.102l-91.428,0c-5.525,0 -10.824,2.195 -14.731,6.102c-3.907,3.907 -6.102,9.206 -6.102,14.732l-0,91.428c-0,5.525 2.195,10.824 6.102,14.731c3.907,3.907 9.206,6.102 14.731,6.102l91.428,-0c5.525,-0 10.824,-2.195 14.731,-6.102c3.907,-3.907 6.102,-9.206 6.102,-14.731l0,-91.428Z"/></clipPath><g clip-path="url(#_clip6)"><path d="M3738.25,127.005c-0,-5.526 -2.195,-10.825 -6.102,-14.732c-3.907,-3.907 -9.206,-6.102 -14.731,-6.102l-91.428,0c-5.526,0 -10.825,2.195 -14.732,6.102c-3.907,3.907 -6.102,9.206 -6.102,14.732l0,91.427c0,5.526 2.195,10.825 6.102,14.732c3.907,3.907 9.206,6.102 14.732,6.102l91.428,-0c5.525,-0 10.824,-2.195 14.731,-6.102c3.907,-3.907 6.102,-9.206 6.102,-14.732l-0,-91.427Z" style="fill:#2fa6cc;"/></g></g></svg>