<?xml version="1.0" encoding="UTF-8" standalone="no"?><!DOCTYPE svg PUBLIC "-//W3C//DTD SVG 1.1//EN" "http://www.w3.org/Graphics/SVG/1.1/DTD/svg11.dtd"><svg width="100%" height="100%" viewBox="0 0 479 479" version="1.1" xmlns="http://www.w3.org/2000/svg" xmlns:xlink="http://www.w3.org/1999/xlink" xml:space="preserve" xmlns:serif="http://www.serif.com/" style="fill-rule:evenodd;clip-rule:evenodd;stroke-linecap:round;stroke-linejoin:round;stroke-miterlimit:1.5;"><g><circle cx="239.266" cy="239.266" r="205.932" style="fill:#fff;stroke:#ccc;stroke-width:66.67px;"/><path d="M198.238,241.489l43.251,43.251l-109.466,109.466c-0,0 54.064,33.469 40.162,40.162c-13.902,6.694 -102.98,20.596 -123.576,0c-20.595,-20.596 -6.693,-109.673 0,-123.575c6.694,-13.902 6.866,-34.326 40.162,40.162l109.467,-109.466Z" style="fill:#2fa6cc;"/><clipPath id="_clip1"><path d="M198.238,241.489l43.251,43.251l-109.466,109.466c-0,0 54.064,33.469 40.162,40.162c-13.902,6.694 -102.98,20.596 -123.576,0c-20.595,-20.596 -6.693,-109.673 0,-123.575c6.694,-13.902 6.866,-34.326 40.162,40.162l109.467,-109.466Z"/></clipPath><g clip-path="url(#_clip1)"><path d="M132.023,394.206l66.215,-152.717l43.251,43.251l-109.466,109.466" style="fill:#00cfff;"/></g><path d="M241.489,198.238l109.466,-109.467c0,0 -54.064,-33.468 -40.162,-40.162c13.902,-6.693 102.979,-20.595 123.575,0c20.596,20.596 6.694,109.674 0,123.576c-6.693,13.902 -6.865,34.326 -40.162,-40.162l-109.466,109.466l-43.251,-43.251Z" style="fill:#00cfff;"/><clipPath id="_clip2"><path d="M241.489,198.238l109.466,-109.467c0,0 -54.064,-33.468 -40.162,-40.162c13.902,-6.693 102.979,-20.595 123.575,0c20.596,20.596 6.694,109.674 0,123.576c-6.693,13.902 -6.865,34.326 -40.162,-40.162l-109.466,109.466l-43.251,-43.251Z"/></clipPath><g clip-path="url(#_clip2)"><path d="M284.74,241.489l66.215,-152.718l-109.466,109.467l43.251,43.251" style="fill:#2fa6cc;"/></g><path d="M284.74,241.489l109.466,109.466c0,0 33.469,-54.064 40.162,-40.162c6.694,13.902 20.596,102.979 0,123.575c-20.596,20.596 -109.673,6.694 -123.575,0c-13.902,-6.693 -34.326,-6.865 40.162,-40.162l-109.466,-109.466l43.251,-43.251Z" style="fill:#fdc501;"/><clipPath id="_clip3"><path d="M284.74,241.489l109.466,109.466c0,0 33.469,-54.064 40.162,-40.162c6.694,13.902 20.596,102.979 0,123.575c-20.596,20.596 -109.673,6.694 -123.575,0c-13.902,-6.693 -34.326,-6.865 40.162,-40.162l-109.466,-109.466l43.251,-43.251Z"/></clipPath><g clip-path="url(#_clip3)"><path d="M350.955,394.206l-109.466,-109.466l43.251,-43.251l66.215,152.717" style="fill:#d2a40a;"/></g><path d="M198.238,241.489l-109.467,-109.466c0,-0 -33.468,54.064 -40.162,40.162c-6.693,-13.902 -20.595,-102.98 0,-123.576c20.596,-20.595 109.674,-6.693 123.576,0c13.902,6.694 34.326,6.866 -40.162,40.162l109.466,109.467l-43.251,43.251Z" style="fill:#d2a40a;"/><clipPath id="_clip4"><path d="M198.238,241.489l-109.467,-109.466c0,-0 -33.468,54.064 -40.162,40.162c-6.693,-13.902 -20.595,-102.98 0,-123.576c20.596,-20.595 109.674,-6.693 123.576,0c13.902,6.694 34.326,6.866 -40.162,40.162l109.466,109.467l-43.251,43.251Z"/></clipPath><g clip-path="url(#_clip4)"><path d="M198.238,241.489l43.251,-43.251l-109.466,-109.467l66.215,152.718" style="fill:#fdc501;"/></g><path d="M284.74,241.489l-43.251,43.251l-43.251,-43.251l43.251,-43.251l43.251,43.251Z" style="fill:#fff200;"/><circle cx="241.489" cy="241.489" r="43.663" style="fill:#fff200;"/><circle cx="241.489" cy="241.489" r="34.577" style="fill:#fff200;"/></g></svg>